<?xml version="1.0" standalone="no"?><!DOCTYPE svg PUBLIC "-//W3C//DTD SVG 1.1//EN" "http://www.w3.org/Graphics/SVG/1.1/DTD/svg11.dtd"><svg t="1743608194768" class="icon" viewBox="0 0 1024 1024" version="1.1" xmlns="http://www.w3.org/2000/svg" p-id="1349" xmlns:xlink="http://www.w3.org/1999/xlink" width="200" height="200"><path d="M256 992h512a160.192 160.192 0 0 0 160-160V192A160.192 160.192 0 0 0 768 32H256A160.192 160.192 0 0 0 96 192v640A160.192 160.192 0 0 0 256 992z m480-554.624h128v149.312h-128z m128-64h-127.68A160.384 160.384 0 0 1 864 227.2z m-128 277.312h128V800H768a32 32 0 0 1-32-32zM160 192A96.128 96.128 0 0 1 256 96h512a95.808 95.808 0 0 1 91.264 67.712A223.872 223.872 0 0 0 672 384v384a96.128 96.128 0 0 0 96 96h90.112a95.872 95.872 0 0 1-90.112 64H256A96.128 96.128 0 0 1 160 832z" p-id="1350"></path></svg>